<svg width="57" height="57" viewBox="0 0 57 57" fill="none" xmlns="http://www.w3.org/2000/svg">
<circle cx="28.5" cy="27.8333" r="26.5" fill="#D9D9D9"/>
<path fill-rule="evenodd" clip-rule="evenodd" d="M28.5 56.6667C44.2401 56.6667 57 43.9814 57 28.3333C57 12.6853 44.2401 0 28.5 0C12.7598 0 0 12.6853 0 28.3333C0 43.9814 12.7598 56.6667 28.5 56.6667ZM37.391 13.1988C37.8238 11.6706 36.3319 10.7668 34.9695 11.7318L15.9502 25.2019C14.4726 26.2484 14.705 28.3333 16.2993 28.3333H21.3076V28.2948H31.0686L23.1152 31.0846L19.609 43.4679C19.1762 44.9962 20.6679 45.8999 22.0305 44.9348L41.0498 31.4649C42.5274 30.4184 42.2949 28.3333 40.7007 28.3333H33.1057L37.391 13.1988Z" fill="#0A84FF"/>
</svg>
