<svg width="212" height="212" viewBox="0 0 212 212" fill="none" xmlns="http://www.w3.org/2000/svg">
<path d="M99.399 1.73906C103.456 -0.579688 108.466 -0.579688 112.565 1.73906L183.692 42.3586L185.472 43.0625V43.4352L205.304 54.7805C210.52 57.7617 213.087 63.8898 211.555 69.6867C210.023 75.4836 204.766 79.5414 198.762 79.5414L13.2427 79.5C7.23947 79.5 1.98149 75.4422 0.449639 69.6453C-1.08221 63.8484 1.48467 57.7203 6.70125 54.7391L26.4911 43.4352V43.0625L28.3128 42.4L99.399 1.73906ZM26.4911 92.75H52.988V172.25H69.5486V92.75H96.0454V172.25H115.918V92.75H142.415V172.25H158.976V92.75H185.472V174.03C185.721 174.155 185.969 174.32 186.218 174.486L206.09 187.736C210.934 190.966 213.129 197.011 211.431 202.601C209.734 208.191 204.558 212 198.721 212H13.2427C7.40507 212 2.2713 208.191 0.573843 202.601C-1.12361 197.011 1.02926 190.966 5.91462 187.736L25.7873 174.486C26.0357 174.32 26.2841 174.196 26.5325 174.03L26.4911 92.75Z" fill="#0A82FF"/>
</svg>
